<?xml version="1.0" encoding="UTF-8"?>
<svg width="430px" height="218px" viewBox="0 0 430 218" version="1.1" xmlns="http://www.w3.org/2000/svg" xmlns:xlink="http://www.w3.org/1999/xlink">
    <!-- Generator: Sketch 42 (36781) - http://www.bohemiancoding.com/sketch -->
    <title>blockstack-logo-vertical</title>
    <desc>Created with Sketch.</desc>
    <defs></defs>
    <g id="Symbols" stroke="none" stroke-width="1" fill="none" fill-rule="evenodd">
        <g id="Logo/blockstack-logo-vertical">
            <g id="blockstack-logo-vertical">
                <rect id="Rectangle" x="0" y="0" width="430" height="218"></rect>
                <path d="M54,153.43459 L60.9896631,153.43459 C62.1968649,153.43459 63.3135097,153.537201 64.3396312,153.742425 C65.3657527,153.94765 66.2530327,154.273589 67.0014977,154.720254 C67.7499628,155.166919 68.3354469,155.764474 68.7579675,156.512939 C69.1804881,157.261405 69.3917452,158.178864 69.3917452,159.265346 C69.3917452,160.400115 69.0537338,161.450365 68.3777008,162.416126 C67.7016679,163.381888 66.6634899,164.045839 65.2631359,164.407999 L65.2631359,164.552863 C67.0015064,164.842591 68.3233725,165.452219 69.2287738,166.381764 C70.1341751,167.31131 70.586869,168.572817 70.586869,170.166323 C70.586869,171.349381 70.36354,172.375487 69.9168754,173.244672 C69.4702107,174.113857 68.8424752,174.838167 68.0336501,175.417624 C67.2248249,175.997081 66.2711498,176.425631 65.1725962,176.703288 C64.0740427,176.980944 62.8728949,177.11977 61.5691171,177.11977 L54,177.11977 L54,153.43459 Z M60.5912885,163.249092 C62.2572269,163.249092 63.4523387,162.947296 64.1766598,162.343695 C64.9009808,161.740094 65.2631359,160.882994 65.2631359,159.772368 C65.2631359,158.685886 64.8828731,157.901217 64.122336,157.418336 C63.3617989,156.935456 62.2210103,156.694019 60.6999362,156.694019 L58.201041,156.694019 L58.201041,163.249092 L60.5912885,163.249092 Z M61.1345266,173.860342 C62.8728971,173.860342 64.2007991,173.534402 65.1182724,172.882513 C66.0357458,172.230624 66.4944755,171.228662 66.4944755,169.876596 C66.4944755,167.462192 64.7078438,166.255009 61.1345266,166.255009 L58.201041,166.255009 L58.201041,173.860342 L61.1345266,173.860342 Z M88.7793071,153.43459 L92.9441322,153.43459 L92.9441322,173.570615 L104.062405,173.570615 L104.062405,177.11977 L88.7793071,177.11977 L88.7793071,153.43459 Z M129.099642,177.554361 C127.723432,177.554361 126.461926,177.270672 125.315084,176.703288 C124.168242,176.135903 123.190423,175.315018 122.381598,174.240608 C121.572773,173.166199 120.939002,171.868476 120.480265,170.347402 C120.021528,168.826328 119.792164,167.100055 119.792164,165.168533 C119.792164,163.261154 120.021528,161.552989 120.480265,160.043987 C120.939002,158.534985 121.572773,157.261406 122.381598,156.223213 C123.190423,155.185019 124.168242,154.388278 125.315084,153.832965 C126.461926,153.277652 127.723432,153 129.099642,153 C130.475852,153 131.737359,153.277652 132.884201,153.832965 C134.031043,154.388278 135.008861,155.185019 135.817687,156.223213 C136.626512,157.261406 137.260283,158.534985 137.71902,160.043987 C138.177756,161.552989 138.407121,163.261154 138.407121,165.168533 C138.407121,167.100055 138.177756,168.826328 137.71902,170.347402 C137.260283,171.868476 136.626512,173.166199 135.817687,174.240608 C135.008861,175.315018 134.031043,176.135903 132.884201,176.703288 C131.737359,177.270672 130.475852,177.554361 129.099642,177.554361 Z M129.099642,173.896558 C129.848107,173.896558 130.530166,173.691336 131.145839,173.280888 C131.761512,172.870439 132.286637,172.284955 132.72123,171.524418 C133.155822,170.763881 133.493834,169.846421 133.735274,168.772012 C133.976714,167.697602 134.097433,166.496455 134.097433,165.168533 C134.097433,162.512689 133.644739,160.430297 132.739337,158.921295 C131.833936,157.412293 130.620717,156.657803 129.099642,156.657803 C127.578568,156.657803 126.365349,157.412293 125.459947,158.921295 C124.554546,160.430297 124.101852,162.512689 124.101852,165.168533 C124.101852,166.496455 124.216535,167.697602 124.445903,168.772012 C124.675271,169.846421 125.007247,170.763881 125.441839,171.524418 C125.876432,172.284955 126.401557,172.870439 127.01723,173.280888 C127.632903,173.691336 128.327033,173.896558 129.099642,173.896558 Z M154.209312,165.349612 C154.209312,163.418089 154.486964,161.685781 155.042277,160.152635 C155.59759,158.619488 156.364151,157.321766 157.341985,156.259428 C158.319818,155.197091 159.478714,154.388278 160.818708,153.832965 C162.158702,153.277652 163.613359,153 165.182721,153 C166.631363,153 167.923049,153.301796 169.057819,153.905397 C170.192589,154.508998 171.146264,155.197092 171.918873,155.969701 L169.564841,158.577244 C168.985384,157.997787 168.339541,157.533022 167.627292,157.182933 C166.915043,156.832845 166.100194,156.657803 165.182721,156.657803 C164.192815,156.657803 163.287428,156.856988 162.46653,157.255365 C161.645633,157.653741 160.945467,158.221118 160.36601,158.957511 C159.786553,159.693904 159.333859,160.593256 159.007915,161.655593 C158.68197,162.717931 158.519001,163.913043 158.519001,165.240964 C158.519001,166.59303 158.68197,167.80625 159.007915,168.880659 C159.333859,169.955069 159.792589,170.860457 160.384118,171.59685 C160.975647,172.333243 161.687885,172.900619 162.520854,173.298996 C163.353824,173.697372 164.277319,173.896558 165.291368,173.896558 C166.25713,173.896558 167.120266,173.691336 167.880803,173.280888 C168.64134,172.870439 169.359615,172.290991 170.035648,171.542526 L172.353463,174.113853 C171.387702,175.224478 170.301237,176.075543 169.094035,176.667072 C167.886833,177.258601 166.534788,177.554361 165.037857,177.554361 C163.516783,177.554361 162.098342,177.28878 160.782492,176.757611 C159.466643,176.226443 158.319818,175.441773 157.341985,174.40358 C156.364151,173.365386 155.59759,172.085772 155.042277,170.564697 C154.486964,169.043623 154.209312,167.305279 154.209312,165.349612 Z M188.843755,153.43459 L193.081012,153.43459 L193.081012,164.190704 L193.18966,164.190704 L201.627958,153.43459 L206.299805,153.43459 L199.020415,162.669638 L207.096555,177.11977 L202.424707,177.11977 L196.52152,165.965282 L193.081012,170.202539 L193.081012,177.11977 L188.843755,177.11977 L188.843755,153.43459 Z M224.202516,171.216583 C225.095846,172.013336 226.103844,172.65918 227.226542,173.154132 C228.349239,173.649085 229.490028,173.896558 230.648942,173.896558 C232.097584,173.896558 233.196121,173.618905 233.944586,173.063593 C234.693051,172.50828 235.067278,171.771898 235.067278,170.854424 C235.067278,170.371544 234.970703,169.961101 234.777551,169.623085 C234.584399,169.285068 234.312782,168.989308 233.962694,168.735796 C233.612605,168.482284 233.190091,168.246883 232.695138,168.029587 C232.200186,167.81229 231.662989,167.594997 231.083532,167.377701 L227.860319,165.965282 C227.232575,165.723842 226.616911,165.422046 226.01331,165.059885 C225.409709,164.697725 224.866477,164.263138 224.383596,163.756114 C223.900715,163.249089 223.514416,162.657569 223.224688,161.981536 C222.93496,161.305503 222.790097,160.532906 222.790097,159.66372 C222.790097,158.722103 222.995319,157.846895 223.405767,157.03807 C223.816216,156.229244 224.383592,155.523042 225.107913,154.919441 C225.832234,154.31584 226.695371,153.845039 227.697348,153.507022 C228.699325,153.169006 229.803898,153 231.0111,153 C232.459742,153 233.841968,153.271616 235.157817,153.814857 C236.473667,154.358098 237.626528,155.088444 238.616433,156.005917 L236.443481,158.685892 C235.646728,158.058147 234.813771,157.563202 233.944586,157.201041 C233.075401,156.838881 232.097582,156.657803 231.0111,156.657803 C229.779754,156.657803 228.807972,156.905276 228.095723,157.400228 C227.383474,157.895181 227.027354,158.57724 227.027354,159.446425 C227.027354,159.905162 227.136001,160.297496 227.353297,160.623441 C227.570594,160.949385 227.866354,161.239109 228.240586,161.492622 C228.614819,161.746134 229.049405,161.969463 229.544357,162.162615 C230.03931,162.355768 230.552363,162.560989 231.083532,162.778285 L234.198097,164.118272 C234.946562,164.408001 235.634657,164.746012 236.262402,165.132317 C236.890146,165.518621 237.433379,165.965279 237.892116,166.472304 C238.350852,166.979329 238.706972,167.564813 238.960484,168.228774 C239.213996,168.892735 239.340751,169.659296 239.340751,170.528482 C239.340751,171.494243 239.141565,172.399631 238.743189,173.244672 C238.344812,174.089713 237.7714,174.832131 237.022935,175.471948 C236.27447,176.111765 235.35701,176.618782 234.270529,176.993015 C233.184047,177.367247 231.95272,177.554361 230.57651,177.554361 C228.910571,177.554361 227.317089,177.252565 225.796015,176.648964 C224.274941,176.045363 222.922895,175.188263 221.739837,174.077637 L224.202516,171.216583 Z M262.205036,156.983746 L254.744567,156.983746 L254.744567,153.43459 L273.866547,153.43459 L273.866547,156.983746 L266.406077,156.983746 L266.406077,177.11977 L262.205036,177.11977 L262.205036,156.983746 Z M301.040521,167.413917 L300.207556,164.516647 C299.869539,163.261157 299.519456,161.969471 299.157295,160.641549 C298.795135,159.313627 298.445052,157.997797 298.107035,156.694019 L297.962172,156.694019 C297.624155,158.021941 297.280108,159.343807 296.930019,160.659657 C296.579931,161.975507 296.223812,163.261157 295.861651,164.516647 L295.028686,167.413917 L301.040521,167.413917 Z M301.982133,170.709561 L294.087073,170.709561 L292.240064,177.11977 L287.966591,177.11977 L295.644356,153.43459 L300.569714,153.43459 L308.247479,177.11977 L303.792927,177.11977 L301.982133,170.709561 Z M323.216705,165.349612 C323.216705,163.418089 323.494357,161.685781 324.04967,160.152635 C324.604982,158.619488 325.371544,157.321766 326.349377,156.259428 C327.327211,155.197091 328.486107,154.388278 329.826101,153.832965 C331.166095,153.277652 332.620751,153 334.190114,153 C335.638756,153 336.930442,153.301796 338.065212,153.905397 C339.199981,154.508998 340.153656,155.197092 340.926266,155.969701 L338.572234,158.577244 C337.992777,157.997787 337.346934,157.533022 336.634685,157.182933 C335.922436,156.832845 335.107587,156.657803 334.190114,156.657803 C333.200208,156.657803 332.29482,156.856988 331.473923,157.255365 C330.653026,157.653741 329.95286,158.221118 329.373403,158.957511 C328.793946,159.693904 328.341252,160.593256 328.015308,161.655593 C327.689363,162.717931 327.526393,163.913043 327.526393,165.240964 C327.526393,166.59303 327.689363,167.80625 328.015308,168.880659 C328.341252,169.955069 328.799982,170.860457 329.391511,171.59685 C329.983039,172.333243 330.695278,172.900619 331.528247,173.298996 C332.361216,173.697372 333.284712,173.896558 334.298761,173.896558 C335.264523,173.896558 336.127659,173.691336 336.888196,173.280888 C337.648733,172.870439 338.367007,172.290991 339.04304,171.542526 L341.360856,174.113853 C340.395095,175.224478 339.308629,176.075543 338.101428,176.667072 C336.894226,177.258601 335.54218,177.554361 334.04525,177.554361 C332.524176,177.554361 331.105735,177.28878 329.789885,176.757611 C328.474035,176.226443 327.327211,175.441773 326.349377,174.40358 C325.371544,173.365386 324.604982,172.085772 324.04967,170.564697 C323.494357,169.043623 323.216705,167.305279 323.216705,165.349612 Z M357.851148,153.43459 L362.088405,153.43459 L362.088405,164.190704 L362.197053,164.190704 L370.635351,153.43459 L375.307198,153.43459 L368.027808,162.669638 L376.103947,177.11977 L371.4321,177.11977 L365.528913,165.965282 L362.088405,170.202539 L362.088405,177.11977 L357.851148,177.11977 L357.851148,153.43459 Z" id="BLOCKSTACK" fill="#270F34"></path>
                <path d="M197.586068,62.0081772 C191.751928,62.0081772 187.022423,57.3885773 187.022423,51.6900121 C187.022423,45.9914468 191.751928,41.371847 197.586068,41.371847 C203.420208,41.371847 208.149713,45.9914468 208.149713,51.6900121 C208.149713,57.3885773 203.420208,62.0081772 197.586068,62.0081772 Z M239.840649,62.0081772 C234.006509,62.0081772 229.277004,57.3885773 229.277004,51.6900121 C229.277004,45.9914468 234.006509,41.371847 239.840649,41.371847 C245.674789,41.371847 250.404294,45.9914468 250.404294,51.6900121 C250.404294,57.3885773 245.674789,62.0081772 239.840649,62.0081772 Z M239.840649,103.280838 C234.006509,103.280838 229.277004,98.6612379 229.277004,92.9626726 C229.277004,87.2641074 234.006509,82.6445075 239.840649,82.6445075 C245.674789,82.6445075 250.404294,87.2641074 250.404294,92.9626726 C250.404294,98.6612379 245.674789,103.280838 239.840649,103.280838 Z M197.586068,103.280838 C191.751928,103.280838 187.022423,98.6612379 187.022423,92.9626726 C187.022423,87.2641074 191.751928,82.6445075 197.586068,82.6445075 C203.420208,82.6445075 208.149713,87.2641074 208.149713,92.9626726 C208.149713,98.6612379 203.420208,103.280838 197.586068,103.280838 Z" id="4dots-electric-blue" fill="#2C96FF"></path>
                <path d="M190.563645,64.7518711 C184.729505,64.7518711 180,60.1322712 180,54.433706 C180,48.7351407 184.729505,44.1155409 190.563645,44.1155409 C196.397785,44.1155409 201.12729,48.7351407 201.12729,54.433706 C201.12729,60.1322712 196.397785,64.7518711 190.563645,64.7518711 Z M232.818226,64.7518711 C226.984086,64.7518711 222.254581,60.1322712 222.254581,54.433706 C222.254581,48.7351407 226.984086,44.1155409 232.818226,44.1155409 C238.652366,44.1155409 243.381871,48.7351407 243.381871,54.433706 C243.381871,60.1322712 238.652366,64.7518711 232.818226,64.7518711 Z M232.818226,106.024532 C226.984086,106.024532 222.254581,101.404932 222.254581,95.7063665 C222.254581,90.0078013 226.984086,85.3882014 232.818226,85.3882014 C238.652366,85.3882014 243.381871,90.0078013 243.381871,95.7063665 C243.381871,101.404932 238.652366,106.024532 232.818226,106.024532 Z M190.563645,106.024532 C184.729505,106.024532 180,101.404932 180,95.7063665 C180,90.0078013 184.729505,85.3882014 190.563645,85.3882014 C196.397785,85.3882014 201.12729,90.0078013 201.12729,95.7063665 C201.12729,101.404932 196.397785,106.024532 190.563645,106.024532 Z" id="4dots-magenta" fill="#E91E63"></path>
                <path d="M194.074857,60.6363303 C188.240717,60.6363303 183.511212,56.0167304 183.511212,50.3181651 C183.511212,44.6195999 188.240717,40 194.074857,40 C199.908997,40 204.638502,44.6195999 204.638502,50.3181651 C204.638502,56.0167304 199.908997,60.6363303 194.074857,60.6363303 Z M236.329437,60.6363303 C230.495297,60.6363303 225.765792,56.0167304 225.765792,50.3181651 C225.765792,44.6195999 230.495297,40 236.329437,40 C242.163577,40 246.893082,44.6195999 246.893082,50.3181651 C246.893082,56.0167304 242.163577,60.6363303 236.329437,60.6363303 Z M236.329437,101.908991 C230.495297,101.908991 225.765792,97.2893909 225.765792,91.5908257 C225.765792,85.8922604 230.495297,81.2726605 236.329437,81.2726605 C242.163577,81.2726605 246.893082,85.8922604 246.893082,91.5908257 C246.893082,97.2893909 242.163577,101.908991 236.329437,101.908991 Z M194.074857,101.908991 C188.240717,101.908991 183.511212,97.2893909 183.511212,91.5908257 C183.511212,85.8922604 188.240717,81.2726605 194.074857,81.2726605 C199.908997,81.2726605 204.638502,85.8922604 204.638502,91.5908257 C204.638502,97.2893909 199.908997,101.908991 194.074857,101.908991 Z" id="4dots-rev" fill="#270F34"></path>
            </g>
        </g>
    </g>
</svg>