<?xml version="1.0" encoding="utf-8"?>
<!-- Generator: Adobe Illustrator 20.1.0, SVG Export Plug-In . SVG Version: 6.00 Build 0)  -->
<svg version="1.1" id="Layer_1" xmlns="http://www.w3.org/2000/svg" xmlns:xlink="http://www.w3.org/1999/xlink" x="0px" y="0px"
	 viewBox="0 0 1277 170" style="enable-background:new 0 0 1277 170;" xml:space="preserve">
<style type="text/css">
	.st0{filter:url(#Adobe_OpacityMaskFilter);}
	.st1{fill:#FFFFFF;}
	.st2{mask:url(#mask-2);}
	.st3{fill:#FFA208;}
	.st4{fill:#35393E;}
</style>
<title>center-logo-offset/dark-orange/ btc-mag-logo</title>
<desc>Created with Sketch.</desc>
<g id="LOGOS">
	<g id="center-logo-offset_x2F_dark-orange_x2F_-btc-mag-logo">
		<g id="FINAL-center_1_" transform="translate(54.000000, -72.000000)">
			<g id="Group_1_">
				<g id="Clipped">
					<g id="Rectangle-path">
					</g>
					<defs>
						<filter id="Adobe_OpacityMaskFilter" filterUnits="userSpaceOnUse" x="53.6" y="104.7" width="1116.8" height="104.4">
							<feColorMatrix  type="matrix" values="1 0 0 0 0  0 1 0 0 0  0 0 1 0 0  0 0 0 1 0"/>
						</filter>
					</defs>
					<mask maskUnits="userSpaceOnUse" x="53.6" y="104.7" width="1116.8" height="104.4" id="mask-2">
						<g class="st0">
							<rect id="path-1" x="0.5" y="0.5" class="st1" width="1169" height="313.7"/>
						</g>
					</mask>
					<g id="Group" class="st2">
						<g transform="translate(53.395812, 104.554247)">
							<g transform="translate(459.403274, 0.000000)">
								<path id="Shape" class="st3" d="M94.6,26.8c0-1.4-0.8-1.9-1.9-1.4l-14.8,7.3c-1,0.5-1.9,2-1.9,3.2v66.9
									c0,1.4,0.9,1.9,1.9,1.4l14.8-7.3c1-0.5,1.9-2,1.9-3.2V26.8L94.6,26.8L94.6,26.8z"/>
								<path id="Shape_1_" class="st3" d="M120.3,13.9c0-1.4-0.9-1.9-1.9-1.4l-14.8,7.3c-1,0.5-1.9,2-1.9,3.2v67.1
									c0,1.4,0.9,1.9,1.9,1.4l14.8-7.3c1-0.5,1.9-2,1.9-3.2V13.9L120.3,13.9z"/>
								<path id="Shape_2_" class="st3" d="M144.8,1.7c0-1.4-0.9-1.9-1.9-1.4l-14.8,7.3c-1,0.5-1.9,2-1.9,3.2v66.9
									c0,1.4,0.9,1.9,1.9,1.4l14.8-7.3c1-0.5,1.9-2,1.9-3.2V1.7L144.8,1.7z"/>
								<path id="Shape_3_" class="st4" d="M69.6,88.5c0-1.7-1-3.6-2.4-4.2L3.4,52.6C2,51.9,1,52.6,1,54.3v13.9c0,1.7,1,3.6,2.4,4.2
									l63.8,31.8c1.4,0.7,2.4-0.2,2.4-1.9V88.5L69.6,88.5z"/>
								<path id="Shape_4_" class="st4" d="M69.6,62.6c0-1.7-1-3.6-2.4-4.2L3.4,26.8C2,26.1,1,26.8,1,28.5v13.9c0,1.7,1,3.6,2.4,4.2
									l63.8,31.6c1.4,0.7,2.4-0.2,2.4-1.9V62.6L69.6,62.6z"/>
								<path id="Shape_5_" class="st4" d="M69.6,36.7c0-1.7-1-3.6-2.4-4.2L3.4,0.8C2,0.1,1,1,1,2.5v13.9c0,1.7,1,3.6,2.4,4.2
									l63.8,31.8c1.4,0.7,2.4-0.2,2.4-1.9V36.7L69.6,36.7z"/>
							</g>
							<g transform="translate(0.000000, 19.438487)">
								<path id="Shape_6_" class="st4" d="M0.2,2h26.3c2.3,0,4.6,0.3,6.9,0.8c2.3,0.5,4.3,1.4,6.1,2.7c1.8,1.2,3.2,2.9,4.3,4.8
									c1.1,2,1.7,4.3,1.7,7.1c0,3.5-1,6.3-3,8.6c-2,2.3-4.6,3.9-7.8,4.9l-2.1,0.2c3.9,0.5,9.2,2,11.7,4.5c2.5,2.5,3.8,5.8,3.8,10
									c0,3.4-0.7,6.2-2,8.5c-1.3,2.3-3.1,4.1-5.3,5.5c-2.2,1.4-4.7,2.4-7.5,3c-2.8,0.6-5.7,0.9-8.6,0.9H0.2V2L0.2,2z M11.2,27.1
									h11.9c3.7,0,6.5-0.7,8.4-2.2c1.9-1.5,2.9-3.5,2.9-6.2c0-2.8-1-4.8-3-5.9c-2-1.2-5.1-1.7-9.3-1.7h-11V27.1L11.2,27.1z
									 M11.2,54.4h12c1.4,0,2.9-0.1,4.6-0.3c1.6-0.2,3.1-0.6,4.5-1.3c1.4-0.6,2.5-1.6,3.4-2.8c0.9-1.2,1.4-2.8,1.4-4.9
									c0-3.2-1.1-5.5-3.3-6.8c-2.2-1.3-5.6-1.9-10.1-1.9H11.2V54.4L11.2,54.4z"/>
								<rect id="Rectangle-path_1_" x="67.8" y="2" class="st4" width="11.1" height="61.6"/>
								<path id="Shape_7_" class="st4" d="M113.9,11.6h-19V2H144v9.6h-19v52h-11.1V11.6L113.9,11.6z"/>
								<path id="Shape_8_" class="st4" d="M202.1,16.5c-1.6-2.2-3.8-3.8-6.4-4.8c-2.6-1-5.2-1.5-7.7-1.5c-3.2,0-6.1,0.6-8.8,1.7
									c-2.6,1.2-4.9,2.8-6.8,4.8c-1.9,2-3.4,4.4-4.4,7.1c-1,2.7-1.5,5.7-1.5,8.9c0,3.4,0.5,6.4,1.5,9.2c1,2.8,2.4,5.2,4.3,7.2
									s4.1,3.6,6.6,4.7c2.6,1.1,5.5,1.7,8.7,1.7c3.3,0,6.3-0.7,8.9-2c2.6-1.3,4.6-3,6.2-5.2l8.9,6.2c-2.8,3.4-6.1,6.1-10.1,8
									c-4,1.9-8.6,2.8-13.9,2.8c-4.9,0-9.3-0.8-13.4-2.4c-4.1-1.6-7.6-3.8-10.5-6.7c-2.9-2.9-5.2-6.3-6.8-10.3
									c-1.6-4-2.5-8.4-2.5-13.2c0-4.9,0.9-9.4,2.6-13.3c1.7-4,4.1-7.3,7.1-10.1c3-2.8,6.6-4.9,10.7-6.4c4.1-1.5,8.5-2.3,13.3-2.3
									c2,0,4.1,0.2,6.2,0.6c2.2,0.4,4.2,1,6.2,1.7c2,0.8,3.9,1.8,5.6,2.9c1.8,1.2,3.2,2.6,4.5,4.2L202.1,16.5L202.1,16.5z"/>
								<path id="Shape_9_" class="st4" d="M223.1,32.6c0-4.9,0.8-9.4,2.5-13.3c1.7-4,4-7.3,6.9-10.1c3-2.8,6.5-4.9,10.5-6.4
									s8.5-2.3,13.3-2.3c4.9,0,9.3,0.8,13.4,2.3c4.1,1.5,7.6,3.7,10.6,6.4c3,2.8,5.3,6.2,7,10.1c1.7,4,2.5,8.4,2.5,13.3
									c0,4.8-0.8,9.2-2.5,13.2c-1.7,4-4,7.4-7,10.3c-3,2.9-6.5,5.1-10.6,6.7c-4.1,1.6-8.6,2.4-13.4,2.4c-4.8,0-9.2-0.8-13.3-2.4
									c-4.1-1.6-7.6-3.8-10.5-6.7c-3-2.9-5.3-6.3-6.9-10.3C223.9,41.8,223.1,37.5,223.1,32.6L223.1,32.6z M235.1,32.6
									c0,3.3,0.5,6.3,1.5,9.1c1,2.8,2.5,5.1,4.4,7.2c1.9,2,4.2,3.6,6.8,4.7c2.6,1.1,5.5,1.7,8.6,1.7c3.2,0,6.1-0.6,8.7-1.7
									c2.6-1.1,4.9-2.7,6.8-4.7c1.9-2,3.4-4.4,4.4-7.2c1-2.8,1.5-5.8,1.5-9.1c0-3.2-0.5-6.1-1.5-8.9c-1-2.7-2.5-5.1-4.3-7.1
									c-1.9-2-4.1-3.6-6.8-4.8c-2.6-1.2-5.6-1.7-8.8-1.7c-3.2,0-6.1,0.6-8.7,1.7c-2.6,1.2-4.8,2.8-6.7,4.8c-1.9,2-3.3,4.4-4.3,7.1
									C235.6,26.5,235.1,29.5,235.1,32.6L235.1,32.6z"/>
								<rect id="Rectangle-path_2_" x="309.3" y="2" class="st4" width="11.1" height="61.6"/>
								<path id="Shape_10_" class="st4" d="M342.8,2h14.7l28.9,46.1h0.2V2h11v61.6h-14L354,16h-0.2v47.6h-11.1V2L342.8,2z"/>
							</g>
							<g transform="translate(646.119403, 19.438487)">
								<path id="Shape_11_" class="st3" d="M32.6,49.4h0.2L51.1,2.1h13.5v61.6h-8.7V12.2h-0.2L35.1,63.7h-5.5L9.1,12.2H8.9v51.5
									H0.5V2.1H14L32.6,49.4L32.6,49.4z"/>
								<path id="Shape_12_" class="st3" d="M84.4,63.7h-9.6l26.9-61.6h7.9l26.7,61.6h-9.8l-6.3-15.1H90.7L84.4,63.7L84.4,63.7z
									 M93.7,41H117l-11.6-28.9L93.7,41L93.7,41z"/>
								<path id="Shape_13_" class="st3" d="M191.7,14.8c-1.9-2-4.3-3.7-7.2-4.9c-2.9-1.2-6.1-1.8-9.7-1.8c-3.6,0-6.9,0.6-9.8,2
									c-2.9,1.3-5.4,3.1-7.5,5.3c-2,2.3-3.6,4.9-4.7,7.9c-1.1,3-1.7,6.2-1.7,9.5c0,3.4,0.6,6.6,1.7,9.7c1.1,3,2.7,5.6,4.7,7.9
									c2,2.2,4.6,4,7.5,5.3c3,1.3,6.3,1.9,10,1.9c2.9,0,5.6-0.3,8.1-0.8c2.5-0.5,4.6-1.3,6.4-2.3V37.3h-13.8V30h22.4v29.8
									c-3.3,1.7-6.8,3.1-10.7,4c-3.9,0.9-8.1,1.4-12.6,1.4c-4.9,0-9.3-0.8-13.4-2.4c-4.1-1.6-7.6-3.8-10.5-6.7
									c-2.9-2.9-5.2-6.3-6.8-10.3s-2.5-8.3-2.5-13.1c0-4.8,0.8-9.2,2.5-13.2c1.7-4,4-7.4,6.9-10.2c3-2.8,6.4-5,10.5-6.6
									c4-1.6,8.4-2.4,13.2-2.4c5,0,9.4,0.7,13.3,2.2c3.9,1.4,7.1,3.4,9.7,5.8L191.7,14.8L191.7,14.8z"/>
								<path id="Shape_14_" class="st3" d="M217.8,63.7h-9.6l26.9-61.6h7.9l26.7,61.6h-9.8l-6.3-15.1H224L217.8,63.7L217.8,63.7z
									 M227.1,41h23.2l-11.6-28.9L227.1,41L227.1,41z"/>
								<path id="Shape_15_" class="st3" d="M320.8,9.7L285.7,56h35.6v7.7h-46.1v-7.6l35-46.4h-34.3V2.1h44.9V9.7L320.8,9.7z"/>
								<rect id="Rectangle-path_3_" x="333.9" y="2.1" class="st3" width="8.7" height="61.6"/>
								<path id="Shape_16_" class="st3" d="M403.7,51.3h0.2V2.1h8.7v61.6h-11l-32.8-50.3h-0.2v50.3h-8.7V2.1h11.3L403.7,51.3
									L403.7,51.3z"/>
								<path id="Shape_17_" class="st3" d="M438.5,56h32.5v7.7h-41.1V2.1h39.8v7.6h-31.1v18.4h29.3v7.4h-29.3V56L438.5,56z"/>
							</g>
						</g>
					</g>
				</g>
			</g>
		</g>
	</g>
</g>
</svg>
